#!OML:ASF I:\Actors\actors\Patient Classification 1\Patient 1\Session 1\Subject1.ASF
:FULLY-SPECIFIED
:DEGREES
396
root 0.556053 17.512 9.35682 6.95718 -2.35972 -9.28619
lowerback -1.72988 1.09484 6.83924
upperback -10.335 1.83601 1.21595
thorax -9.87541 0.374345 -2.63306
lowerneck 3.45864 -2.03519 -3.02166
upperneck -15.1749 -1.18079 13.0717
head -4.97117 -1.2121 4.66253
rclavicle -4.77083e-015 3.57812e-015
rhumerus 35.4304 23.7624 -40.2195
rradius 139.777
rwrist -5.07387
rhand 21.5797 -52.6699
rfingers 7.12502
rthumb 46.0038 -75.7629
lclavicle -4.77083e-015 3.57812e-015
lhumerus 4.97191 -44.9528 71.5503
lradius 133.44
lwrist -20.3687
lhand -37.7267 -39.9236
lfingers 7.12502
lthumb -10.7757 -10.22
rfemur -4.52074 21.1459 27.0745
rtibia 8.06214
rfoot -12.4128 -19.4732
rtoes -0.841909
lfemur 10.1784 -43.3828 -14.8198
ltibia -4.91845
lfoot -21.3017 51.6567
ltoes 7.84125
397
root 0.55391 17.511 9.35611 6.86873 -2.35489 -9.30005
lowerback -1.7123 1.09681 6.80628
upperback -10.3412 1.83777 1.19605
thorax -9.89233 0.376324 -2.63661
lowerneck 3.3873 -2.06967 -3.04966
upperneck -14.9407 -1.25009 13.1018
head -4.88046 -1.23668 4.67227
rclavicle -2.28602e-014 9.14409e-015
rhumerus 34.9333 25.2797 -40.1646
rradius 140.726
rwrist -5.2871
rhand 19.144 -57.3763
rfingers 7.12502
rthumb 43.7368 -81.3566
lclavicle -2.28602e-014 9.14409e-015
lhumerus 5.46581 -45.2651 71.31
lradius 133.72
lwrist -18.7232
lhand -37.5774 -39.5421
lfingers 7.12502
lthumb -10.6317 -9.83101
rfemur -4.45113 21.0451 27.1285
rtibia 8.11135
rfoot -12.4313 -19.387
rtoes -0.656325
lfemur 10.3079 -43.3594 -14.8837
ltibia -4.91863
lfoot -21.3886 51.6064
ltoes 7.98599
398
root 0.551525 17.5101 9.35565 6.76753 -2.40321 -9.33289
lowerback -1.68938 1.08531 6.74925
upperback -10.3393 1.82304 1.21266
thorax -9.90602 0.374412 -2.5868
lowerneck 3.43826 -2.08191 -2.97357
upperneck -14.8765 -1.2754 13.0367
head -4.86963 -1.24904 4.63868
rclavicle -1.19271e-015 1.43125e-014
rhumerus 34.2329 26.2181 -40.9871
rradius 140.678
rwrist -6.61857
rhand 17.8242 -57.1695
rfingers 7.12502
rthumb 42.5031 -81.5887
lclavicle -1.19271e-015 1.43125e-014
lhumerus 6.01337 -45.5212 71.0718
lradius 134.173
lwrist -16.7547
lhand -37.0656 -38.8377
lfingers 7.12502
lthumb -10.1379 -9.10199
rfemur -4.35782 20.9723 27.2142
rtibia 8.13722
rfoot -12.4251 -19.3249
rtoes -0.824412
lfemur 10.4584 -43.27 -14.9528
ltibia -4.89047
lfoot -21.4725 51.5543
ltoes 8.14835
399
root 0.549129 17.5094 9.35519 6.69115 -2.46498 -9.35311
lowerback -1.7247 1.05327 6.65269
upperback -10.3285 1.77454 1.24614
thorax -9.87864 0.361728 -2.49356
lowerneck 3.5116 -2.04322 -2.84102
upperneck -14.8019 -1.22716 12.9697
head -4.86669 -1.22895 4.59185
rclavicle 2.5842e-015 -1.27222e-014
rhumerus 33.4421 27.3763 -42.0533
rradius 140.692
rwrist -7.5526
rhand 16.5168 -57.4257
rfingers 7.12502
rthumb 41.2775 -82.2532
lclavicle 2.5842e-015 -1.27222e-014
lhumerus 6.40985 -45.5414 70.9662
lradius 134.686
lwrist -15.0245
lhand -36.1311 -37.9487
lfingers 7.12502
lthumb -9.23634 -8.17101
rfemur -4.27958 20.9447 27.2747
rtibia 8.14005
rfoot -12.3997 -19.2703
rtoes -1.00975
lfemur 10.5395 -43.1334 -14.9841
ltibia -4.84907
lfoot -21.3096 51.5091
ltoes 7.96507
400
root 0.547077 17.508 9.35399 6.6434 -2.54197 -9.37167
lowerback -1.77951 1.04666 6.57454
upperback -10.3167 1.75811 1.26364
thorax -9.83476 0.362906 -2.42928
lowerneck 3.50394 -2.03696 -2.71227
upperneck -14.6772 -1.233 12.8718
head -4.83002 -1.22893 4.53549
rclavicle 1.96797e-014 -5.32743e-014
rhumerus 32.6013 28.5802 -43.2737
rradius 140.707
rwrist -8.00617
rhand 15.2698 -57.8805
rfingers 7.12502
rthumb 40.1056 -83.0746
lclavicle 1.96797e-014 -5.32743e-014
lhumerus 6.64061 -45.3834 71.1248
lradius 135.371
lwrist -12.8536
lhand -34.0862 -36.344
lfingers 7.12502
lthumb -7.26275 -6.48861
rfemur -4.25557 20.8746 27.306
rtibia 8.16838
rfoot -12.3884 -19.141
rtoes -1.16416
lfemur 10.6313 -43.091 -15.0254
ltibia -4.84245
lfoot -21.3555 51.5429
ltoes 7.92662
401
root 0.54393 17.5061 9.35302 6.56605 -2.63268 -9.38
lowerback -1.80328 1.07138 6.48707
upperback -10.3147 1.7854 1.261
thorax -9.81595 0.384325 -2.38478
lowerneck 3.4654 -2.06316 -2.63582
upperneck -14.4928 -1.29029 12.7993
head -4.76444 -1.24971 4.49639
rclavicle -7.55382e-015 -7.95139e-015
rhumerus 31.6555 29.8183 -44.5975
rradius 140.701
rwrist -8.01499
rhand 14.1671 -58.0135
rfingers 7.12502
rthumb 39.0671 -83.5142
lclavicle -7.55382e-015 -7.95139e-015
lhumerus 6.69335 -45.3534 71.5484
lradius 136.147
lwrist -10.2632
lhand -31.868 -33.6429
lfingers 7.12502
lthumb -5.12127 -3.7248
rfemur -4.18926 20.806 27.3403
rtibia 8.18503
rfoot -12.3986 -18.9932
rtoes -1.07259
lfemur 10.8234 -43.1183 -15.157
ltibia -4.84968
lfoot -21.6436 51.6106
ltoes 8.19448
402
root 0.539282 17.5034 9.35124 6.46109 -2.72078 -9.3592
lowerback -1.79257 1.0969 6.35035
upperback -10.3218 1.81497 1.25294
thorax -9.82815 0.40967 -2.31967
lowerneck 3.46633 -2.05233 -2.64653
upperneck -14.2174 -1.29356 12.8766
head -4.67955 -1.24657 4.51578
rclavicle -1.39149e-015 -1.98785e-014
rhumerus 30.599 31.2977 -46.006
rradius 140.712
rwrist -7.79839
rhand 13.136 -57.8241
rfingers 7.12502
rthumb 38.0943 -83.5976
lclavicle -1.39149e-015 -1.98785e-014
lhumerus 6.92634 -45.3025 71.8756
lradius 136.526
lwrist -7.59814
lhand -31.0959 -30.8922
lfingers 7.12502
lthumb -4.37573 -0.957378
rfemur -4.08036 20.8143 27.3648
rtibia 8.19286
rfoot -12.4237 -18.9008
rtoes -0.80636
lfemur 11.0372 -43.144 -15.3379
ltibia -4.83507
lfoot -21.9121 51.6573
ltoes 8.52689
403
root 0.535205 17.5008 9.3457 6.4046 -2.79917 -9.38092
lowerback -1.75656 1.10987 6.2681
upperback -10.3334 1.83368 1.26584
thorax -9.86211 0.425318 -2.26227
lowerneck 3.59014 -2.04355 -2.57294
upperneck -14.2652 -1.27313 12.8476
head -4.71882 -1.2442 4.49648
rclavicle 8.15017e-015 -7.95139e-016
rhumerus 29.5851 32.9987 -47.4956
rradius 140.766
rwrist -7.91014
rhand 11.8597 -57.4051
rfingers 7.12502
rthumb 36.888 -83.4984
lclavicle 8.15017e-015 -7.95139e-016
lhumerus 7.52056 -44.8057 71.9763
lradius 136.706
lwrist -3.34579
lhand -30.0982 -28.9089
lfingers 7.12502
lthumb -3.41226 1.04357
rfemur -4.05155 20.8482 27.4187
rtibia 8.22958
rfoot -12.4406 -18.8492
rtoes -0.785458
lfemur 11.1203 -43.114 -15.3595
ltibia -4.82209
lfoot -22.0388 51.6682
ltoes 8.73975
404
root 0.532579 17.4995 9.33852 6.38786 -2.87897 -9.45192
lowerback -1.72581 1.12543 6.26073
upperback -10.3276 1.8584 1.29104
thorax -9.87262 0.439142 -2.23347
lowerneck 3.52777 -2.01928 -2.61038
upperneck -14.1843 -1.23902 12.9467
head -4.68446 -1.22673 4.52977
rclavicle -1.11319e-014 -1.27222e-014
rhumerus 28.6702 34.7543 -49.0227
rradius 140.795
rwrist -8.19038
rhand 10.0943 -56.9243
rfingers 7.12502
rthumb 35.2158 -83.4297
lclavicle -1.11319e-014 -1.27222e-014
lhumerus 8.11307 -44.1645 72.1276
lradius 137.042
lwrist 2.25684
lhand -28.2151 -26.8637
lfingers 7.12502
lthumb -1.59369 3.1101
rfemur -4.07451 20.8879 27.511
rtibia 8.27634
rfoot -12.4794 -18.8081
rtoes -0.832318
lfemur 11.1707 -43.1045 -15.3
ltibia -4.84372
lfoot -22.0706 51.7301
ltoes 8.67647
